<svg width="48" height="48" viewBox="0 0 48 48" fill="none" xmlns="http://www.w3.org/2000/svg">
<rect width="48" height="48" rx="24" fill="#DC251C" fill-opacity="0.1"/>
<path d="M24 15.9703C24.6077 15.9703 25.2122 16.3538 25.6727 17.1208L32.0773 27.7959C32.9992 29.3288 32.2875 30.5833 30.5 30.5833H17.5C15.7125 30.5833 15.0007 29.3278 15.9227 27.7959L22.3273 17.1208C22.7877 16.3538 23.3922 15.9703 24 15.9703ZM24 13.8036C22.596 13.8036 21.3112 14.6053 20.4694 16.0038L14.0647 26.6812C13.2132 28.0993 13.1201 29.6116 13.8102 30.8303C14.5002 32.0491 15.8457 32.75 17.5 32.75H30.5C32.1542 32.75 33.5008 32.0502 34.1898 30.8314C34.8788 29.6127 34.7867 28.1003 33.9352 26.6823L27.5306 16.0071C26.6888 14.6053 25.404 13.8036 24 13.8036Z" fill="#DC251C"/>
<path d="M24 28.7417C24.7778 28.7417 25.4083 28.1112 25.4083 27.3334C25.4083 26.5556 24.7778 25.925 24 25.925C23.2222 25.925 22.5917 26.5556 22.5917 27.3334C22.5917 28.1112 23.2222 28.7417 24 28.7417Z" fill="#DC251C"/>
<path d="M25.625 20.8334C25.625 19.9342 24.8981 19.2084 24 19.2084C23.1019 19.2084 22.375 19.9342 22.375 20.8334C22.375 21.049 22.4194 21.2548 22.4953 21.4422C23.0954 22.9329 24 25.1667 24 25.1667L25.5069 21.4422C25.5806 21.2548 25.625 21.049 25.625 20.8334Z" fill="#DC251C"/>
</svg>
