<svg width="49" height="48" viewBox="0 0 49 48" fill="none" xmlns="http://www.w3.org/2000/svg">
<rect x="0.258545" width="48" height="48" rx="24" fill="#DC251C" fill-opacity="0.1"/>
<path d="M24.2585 22V28" stroke="#DC251C" stroke-width="2" stroke-miterlimit="10" stroke-linecap="round" stroke-linejoin="round"/>
<path d="M21.2585 25H27.2585" stroke="#DC251C" stroke-width="2" stroke-miterlimit="10" stroke-linecap="round" stroke-linejoin="round"/>
<path d="M31.571 33.5625H16.946C15.1585 33.5625 13.696 32.1 13.696 30.3125V20.5625C13.696 18.775 15.1585 17.3125 16.946 17.3125H31.571C33.3585 17.3125 34.821 18.775 34.821 20.5625V30.3125C34.821 32.1 33.3585 33.5625 31.571 33.5625Z" stroke="#DC251C" stroke-width="2" stroke-miterlimit="10" stroke-linecap="round" stroke-linejoin="round"/>
<path d="M28.321 17.3125H20.196V15.6875C20.196 13.9 21.6585 12.4375 23.446 12.4375H25.071C26.8585 12.4375 28.321 13.9 28.321 15.6875V17.3125Z" stroke="#DC251C" stroke-width="2" stroke-miterlimit="10" stroke-linecap="round" stroke-linejoin="round"/>
</svg>
