<svg width="40" height="40" viewBox="0 0 40 40" fill="none" xmlns="http://www.w3.org/2000/svg">
<rect width="40" height="40" rx="20" fill="#219653"/>
<path d="M30.4611 15.1611L25.8028 10.5389C24.9361 9.67222 23.5639 9.67222 22.6972 10.5389C21.9389 11.2972 21.8667 12.4889 22.4444 13.3556L12.3333 23.5028C10.8889 24.9472 10.8889 27.2583 12.3333 28.7028C13.7778 30.1472 16.0889 30.1472 17.5333 28.7028L24.0694 22.1667L22.3361 20.4333C22.1917 20.2889 22.1917 20.0722 22.3361 19.9278C22.4806 19.7833 22.6972 19.7833 22.8417 19.9278L24.575 21.6611L25.8389 20.3972L24.1056 18.6639C23.9611 18.5194 23.9611 18.3028 24.1056 18.1583C24.25 18.0139 24.4667 18.0139 24.6111 18.1583L26.3444 19.8917L27.6444 18.5917C28.0056 18.8444 28.4389 18.9889 28.9083 18.9889C29.4861 18.9889 30.0278 18.7722 30.4611 18.3389C31.3278 17.4361 31.3278 16.0278 30.4611 15.1611ZM13.3806 26.4278C13.0556 26.4278 12.7667 26.1389 12.7667 25.8139C12.7667 25.4889 13.0556 25.2 13.3806 25.2C13.7056 25.2 13.9944 25.4889 13.9944 25.8139C13.9944 26.1389 13.7056 26.4278 13.3806 26.4278ZM16.0167 22.925C16.0167 22.6 16.3056 22.3111 16.6306 22.3111C16.9556 22.3111 17.2444 22.6 17.2444 22.925C17.2444 23.25 16.9556 23.5389 16.6306 23.5389C16.3056 23.5389 16.0167 23.25 16.0167 22.925ZM16.8833 26.8972C16.5583 26.8972 16.2694 26.6083 16.2694 26.2833C16.2694 25.9583 16.5583 25.6694 16.8833 25.6694C17.2083 25.6694 17.4972 25.9583 17.4972 26.2833C17.4972 26.6083 17.2444 26.8972 16.8833 26.8972ZM29.9556 17.7611C29.6667 18.05 29.3056 18.1944 28.9083 18.1944C28.5111 18.1944 28.15 18.05 27.8611 17.7611L23.2389 13.1389C22.6611 12.5611 22.6611 11.6222 23.2389 11.0444C23.8167 10.4667 24.7556 10.4667 25.3333 11.0444L29.9917 15.7028C30.2806 15.9917 30.425 16.3528 30.425 16.75C30.425 17.1472 30.2444 17.5083 29.9556 17.7611Z" fill="white"/>
</svg>
