<svg width="40" height="40" viewBox="0 0 40 40" fill="none" xmlns="http://www.w3.org/2000/svg">
<rect width="40" height="40" rx="20" fill="#7879F1"/>
<path d="M10.25 17.7972V27.3305C10.25 28.125 10.9 28.775 11.6944 28.775H28.3056C29.1 28.775 29.75 28.125 29.75 27.3305V17.7972H10.25ZM17.7611 21.8055H18.7361V20.8305C18.7361 20.1083 19.3139 19.5305 20.0361 19.5305C20.7583 19.5305 21.3361 20.1083 21.3361 20.8305V21.8055H22.3111C23.0333 21.8055 23.6111 22.3833 23.6111 23.1055C23.6111 23.8278 23.0333 24.4055 22.3111 24.4055H21.3361V25.3805C21.3361 26.1028 20.7583 26.6805 20.0361 26.6805C19.3139 26.6805 18.7361 26.1028 18.7361 25.3805V24.4055H17.7611C17.0389 24.4055 16.4611 23.8278 16.4611 23.1055C16.4611 22.3833 17.0389 21.8055 17.7611 21.8055Z" fill="white"/>
<path d="M17.7611 23.6833H19.0972C19.3139 23.6833 19.4583 23.8278 19.4583 24.0444V25.3806C19.4583 25.7056 19.7111 25.9583 20.0361 25.9583C20.3611 25.9583 20.6139 25.7056 20.6139 25.3806V24.0444C20.6139 23.8278 20.7583 23.6833 20.975 23.6833H22.3111C22.6361 23.6833 22.8889 23.4306 22.8889 23.1056C22.8889 22.7806 22.6361 22.5278 22.3111 22.5278H20.975C20.7583 22.5278 20.6139 22.3833 20.6139 22.1667V20.8306C20.6139 20.5056 20.3611 20.2528 20.0361 20.2528C19.7111 20.2528 19.4583 20.5056 19.4583 20.8306V22.1667C19.4583 22.3833 19.3139 22.5278 19.0972 22.5278H17.7611C17.4361 22.5278 17.1833 22.7806 17.1833 23.1056C17.1833 23.4306 17.4361 23.6833 17.7611 23.6833ZM28.3056 14.1861H27.5833V13.6083C27.5833 13.2111 27.2583 12.8861 26.8611 12.8861C26.4639 12.8861 26.1389 13.2111 26.1389 13.6083V14.1861H23.9722C23.9722 14.15 23.9722 14.15 23.9722 14.1139C23.9722 12.3083 22.5278 10.8639 20.7222 10.8639H19.2778C17.4722 10.8639 16.0278 12.3083 16.0278 14.1139V14.1861H13.8611V13.6083C13.8611 13.2111 13.5361 12.8861 13.1389 12.8861C12.7417 12.8861 12.4167 13.2111 12.4167 13.6083V14.1861H11.6944C10.9 14.1861 10.25 14.8361 10.25 15.6306V17.075H29.75V15.6306C29.75 14.8361 29.1 14.1861 28.3056 14.1861ZM16.75 14.1139C16.75 12.7056 17.8694 11.5861 19.2778 11.5861H20.7222C22.1306 11.5861 23.25 12.7056 23.25 14.1139C23.25 14.15 23.25 14.1861 23.25 14.1861H16.75V14.1139Z" fill="white"/>
</svg>
