<svg width="40" height="40" viewBox="0 0 40 40" fill="none" xmlns="http://www.w3.org/2000/svg">
<rect width="40" height="40" rx="20" fill="#2F80ED"/>
<g clip-path="url(#clip0_81_5651)">
<path d="M20.2888 24.5139C20.2888 24.5861 20.2888 24.6583 20.2527 24.7305H29.2805C29.1 22.3833 27.15 20.5417 24.7666 20.5417C24.5861 20.5417 24.3694 20.5417 24.1888 20.5778L26.6444 18.1222C28.4139 16.3528 28.4139 13.4639 26.6444 11.6583C24.875 9.88888 21.9861 9.88888 20.2166 11.6944L15.9555 15.9194C15.9916 15.9555 15.9916 15.9555 16.0277 15.9917C17.4 18.3389 19.3138 20.325 21.5527 21.8055C21.5888 21.8055 21.5888 21.8417 21.5888 21.8417C21.4083 22.0222 21.2638 22.2028 21.1194 22.3833C18.8083 20.8667 16.8222 18.8083 15.4138 16.425L11.3333 20.5778C9.52774 22.3472 9.52774 25.2361 11.3333 27.0417C13.1027 28.8111 15.9916 28.8111 17.7972 27.0417L20.2888 24.5139Z" fill="white"/>
<path d="M24.7666 29.6416C27.15 29.6416 29.1 27.8 29.2805 25.4528H20.2527C20.4333 27.8 22.3833 29.6416 24.7666 29.6416Z" fill="white"/>
</g>
<defs>
<clipPath id="clip0_81_5651">
<rect width="26" height="26" fill="white" transform="translate(7 7)"/>
</clipPath>
</defs>
</svg>
