<svg width="49" height="48" viewBox="0 0 49 48" fill="none" xmlns="http://www.w3.org/2000/svg">
<rect x="0.931519" width="48" height="48" rx="24" fill="#B5E4CA" fill-opacity="0.25"/>
<path d="M24.9315 15.9703C25.5393 15.9703 26.1438 16.3538 26.6042 17.1208L33.0089 27.7959C33.9308 29.3288 33.219 30.5833 31.4315 30.5833H18.4315C16.644 30.5833 15.9323 29.3278 16.8542 27.7959L23.2589 17.1208C23.7193 16.3538 24.3238 15.9703 24.9315 15.9703ZM24.9315 13.8036C23.5275 13.8036 22.2427 14.6053 21.4009 16.0038L14.9963 26.6812C14.1448 28.0993 14.0516 29.6116 14.7417 30.8303C15.4318 32.0491 16.7773 32.75 18.4315 32.75H31.4315C33.0858 32.75 34.4324 32.0502 35.1213 30.8314C35.8104 29.6127 35.7183 28.1003 34.8668 26.6823L28.4621 16.0071C27.6203 14.6053 26.3355 13.8036 24.9315 13.8036Z" fill="#0CA8A3"/>
<path d="M24.9315 28.7417C25.7093 28.7417 26.3399 28.1112 26.3399 27.3334C26.3399 26.5556 25.7093 25.925 24.9315 25.925C24.1537 25.925 23.5232 26.5556 23.5232 27.3334C23.5232 28.1112 24.1537 28.7417 24.9315 28.7417Z" fill="#0CA8A3"/>
<path d="M26.5565 20.8334C26.5565 19.9342 25.8296 19.2084 24.9315 19.2084C24.0334 19.2084 23.3065 19.9342 23.3065 20.8334C23.3065 21.049 23.3509 21.2548 23.4268 21.4422C24.0269 22.9329 24.9315 25.1667 24.9315 25.1667L26.4384 21.4422C26.5121 21.2548 26.5565 21.049 26.5565 20.8334Z" fill="#0CA8A3"/>
</svg>
