<svg id="Layer_1" data-name="Layer 1" xmlns="http://www.w3.org/2000/svg" xmlns:xlink="http://www.w3.org/1999/xlink" viewBox="0 0 2134.15 1562.96"><defs><style>.cls-1{fill:#fff;}.cls-2{fill:url(#linear-gradient);}.cls-3{fill:url(#linear-gradient-2);}.cls-4{fill:url(#linear-gradient-3);}.cls-5{fill:url(#linear-gradient-4);}</style><linearGradient id="linear-gradient" x1="797.01" y1="495.87" x2="912.43" y2="495.87" gradientUnits="userSpaceOnUse"><stop offset="0" stop-color="#25aec6"/><stop offset="0.37" stop-color="#5aa4bc"/><stop offset="1" stop-color="#8dbac3"/></linearGradient><linearGradient id="linear-gradient-2" x1="1078.84" y1="755.92" x2="1194.26" y2="755.92" gradientTransform="matrix(1, 0, 0, -1, 0, 1562)" xlink:href="#linear-gradient"/><linearGradient id="linear-gradient-3" x1="477.38" y1="669.67" x2="1643.71" y2="669.67" gradientTransform="matrix(1, 0, 0, -1, 0, 1562)" xlink:href="#linear-gradient"/><linearGradient id="linear-gradient-4" x1="399.33" y1="1210.95" x2="1572.44" y2="1210.95" gradientTransform="matrix(1, 0, 0, -1, 0, 1562)" xlink:href="#linear-gradient"/></defs><g id="Layer_2" data-name="Layer 2"><g id="Layer_1-2" data-name="Layer 1-2"><path class="cls-1" d="M2134.15,983.4q0,78.2-48.78,128.61t-123,50.41H1748.15v-990H1962.4q74.79,0,123.27,50.42t48.48,128.6Zm-83-9V359.17q0-48.68-29.07-78.72t-75.24-30H1831.15v834h110.91q48.54,0,78.81-29.39T2051.15,974.4Z"/><path class="cls-1" d="M307,1198.17H0v-990H303v78H83v369H284v79H83v386H307Z"/><path class="cls-1" d="M1097.55,786.49a22.8,22.8,0,0,1-17-7.53L876.87,554a22.94,22.94,0,0,1,33.61-31.23c.1.11.21.22.31.34L1114.51,748a23,23,0,0,1-1.56,32.45A22.76,22.76,0,0,1,1097.55,786.49Z"/><path class="cls-1" d="M1175,786a23,23,0,0,1-16.55-38.85l256.12-268.44a22.94,22.94,0,1,1,33.16,31.71l0,.05-256.16,268.4A22.81,22.81,0,0,1,1175,786Z"/><path class="cls-1" d="M609.32,785.77a23,23,0,0,1-16.81-38.57L799,523.23a22.94,22.94,0,1,1,34.12,30.67l-.48.52-206.53,224A22.82,22.82,0,0,1,609.32,785.77Z"/><path class="cls-2" d="M912.43,496.05a57.81,57.81,0,1,1,0-.17Z"/><path class="cls-1" d="M854.73,576.89a80.69,80.69,0,0,1-80.62-80.76v-.08c0-44.59,36.16-80.86,80.62-80.86s80.62,36.27,80.62,80.86a81.09,81.09,0,0,1-26,59.44A80.28,80.28,0,0,1,854.73,576.89Zm0-115.76A34.91,34.91,0,1,0,878.3,521.7a34.54,34.54,0,0,0,11.22-25.65A34.9,34.9,0,0,0,854.73,461.13Z"/><path class="cls-3" d="M1194.26,806.16A57.79,57.79,0,1,1,1175,763,57.81,57.81,0,0,1,1194.26,806.16Z"/><path class="cls-1" d="M1136.55,887c-44.46,0-80.62-36.27-80.62-80.86A80.62,80.62,0,1,1,1136.55,887Zm0-115.75a34.91,34.91,0,1,0,34.79,35v-.14A34.85,34.85,0,0,0,1136.55,771.25Z"/><path class="cls-4" d="M1021.53,1247.81A621.66,621.66,0,0,1,481.72,934.37a31.37,31.37,0,0,1,54.06-31.84l.3.52A563.58,563.58,0,0,0,737.17,1107.2c266.42,156.87,609.56,68.06,766.42-198.36A559.78,559.78,0,0,0,1581,623.91c0-17.6-.82-35.35-2.44-52.78A31.36,31.36,0,0,1,1641,565.3h0c1.8,19.35,2.71,39.07,2.71,58.61,1,343.57-276.72,622.9-620.3,623.9h-1.88Z"/><path class="cls-5" d="M432.46,702.1a31.38,31.38,0,0,1-31.22-29c-1.26-16.26-1.91-32.82-1.91-49.21C398.34,280.32,676.06,1,1019.64,0h1.89c228.35,0,438,125.11,547.08,326.49a31.36,31.36,0,0,1-55.08,30c-98.12-181.12-286.65-293.64-492-293.64C712.13,63.23,461.62,314.34,462,623.74v.17c0,14.76.58,29.67,1.72,44.31A31.4,31.4,0,0,1,434.93,702C434.1,702.07,433.28,702.1,432.46,702.1Z"/><path class="cls-1" d="M37.29,1475.6v83.15H15V1360.36H40.6q39.56,0,55.77,14.34t16.22,43q0,29.46-17.4,43.67T50.08,1475.6Zm0-93.14v71h7.1a99.78,99.78,0,0,0,17.17-1.31,56.39,56.39,0,0,0,14.8-4.87,25,25,0,0,0,11.37-11.18q4-7.63,4-19,0-11.05-4.26-18.42A24.65,24.65,0,0,0,75.39,1388a66.14,66.14,0,0,0-15.15-4.48,108.68,108.68,0,0,0-17-1.18Z"/><path class="cls-1" d="M296.59,1360.36v175.76h54.23v22.63H274.33V1360.36Z"/><path class="cls-1" d="M614.86,1509H532.92l-20.36,49.73H488.64l85.25-206.81,85.25,206.81H635.22Zm-9.24-22.63-31.73-80.25-31.73,80.25Z"/><path class="cls-1" d="M845.27,1383v175.77H823V1383H780.62v-22.62h107V1383Z"/><path class="cls-1" d="M1133.47,1383h-64.18v55.79h62v22.62h-62v97.36H1047V1360.36h86.44Z"/><path class="cls-1" d="M1316.64,1386.54q27.57-30.39,65.95-30.39t66,30.39q27.59,30.39,27.59,73,0,44-27.24,73.68t-66.3,29.73q-39.08,0-66.31-29.73t-27.23-73.68Q1289.05,1416.94,1316.64,1386.54Zm15.74,130q21.07,23.28,50.21,23.28t50.2-23.28q21.07-23.3,21.08-57,0-33.4-20.25-56.83t-51-23.42q-30.8,0-51,23.42t-20.24,56.83q-.08,33.7,21,57Z"/><path class="cls-1" d="M1694.46,1472.45l56.36,86.3h-27l-52.57-83.94H1662v83.94h-22.26V1360.36h27q10.18,0,16.46.39a92.74,92.74,0,0,1,15.16,2.5,50.6,50.6,0,0,1,15.51,6.32,48.63,48.63,0,0,1,17.16,20,61.68,61.68,0,0,1,6.28,27.37q0,21.57-11.84,37.23A45.23,45.23,0,0,1,1694.46,1472.45Zm-32.44-90v71.83h7.1a100.79,100.79,0,0,0,17.17-1.31,56.39,56.39,0,0,0,14.8-4.87,25,25,0,0,0,11.37-11.19q4-7.62,4-18.94,0-35.52-48.54-35.52Z"/><path class="cls-1" d="M1994.26,1563l-53.52-135.24h-.48l-20.83,131h-23L1932.9,1352l61.34,156.29L2055.57,1352,2092,1558.76h-23l-20.84-131h-.48Z"/></g></g></svg>